<mxfile host="app.diagrams.net" agent="Mozilla/5.0 (Windows NT 10.0; Win64; x64) AppleWebKit/537.36 (KHTML, like Gecko) Chrome/128.0.0.0 Safari/537.36 OPR/114.0.0.0" version="24.8.6">
  <diagram name="Page-1" id="OUXGBbqK-ujBELSVtXnf">
    <mxGraphModel dx="2242" dy="1273" grid="1" gridSize="10" guides="1" tooltips="1" connect="1" arrows="1" fold="1" page="1" pageScale="1" pageWidth="850" pageHeight="1100" math="0" shadow="0">
      <root>
        <mxCell id="0" />
        <mxCell id="1" parent="0" />
        <mxCell id="JgOdJI_5aJNnrcdEc_Zj-1" style="edgeStyle=orthogonalEdgeStyle;rounded=0;orthogonalLoop=1;jettySize=auto;html=1;exitX=1;exitY=0.25;exitDx=0;exitDy=0;entryX=0;entryY=0.5;entryDx=0;entryDy=0;" edge="1" parent="1" source="JgOdJI_5aJNnrcdEc_Zj-7" target="JgOdJI_5aJNnrcdEc_Zj-22">
          <mxGeometry relative="1" as="geometry" />
        </mxCell>
        <mxCell id="JgOdJI_5aJNnrcdEc_Zj-2" style="edgeStyle=orthogonalEdgeStyle;rounded=0;orthogonalLoop=1;jettySize=auto;html=1;exitX=1;exitY=0.25;exitDx=0;exitDy=0;entryX=0;entryY=0.5;entryDx=0;entryDy=0;" edge="1" parent="1" source="JgOdJI_5aJNnrcdEc_Zj-7" target="JgOdJI_5aJNnrcdEc_Zj-23">
          <mxGeometry relative="1" as="geometry" />
        </mxCell>
        <mxCell id="JgOdJI_5aJNnrcdEc_Zj-3" style="edgeStyle=orthogonalEdgeStyle;rounded=0;orthogonalLoop=1;jettySize=auto;html=1;exitX=1;exitY=0.25;exitDx=0;exitDy=0;entryX=0;entryY=0.5;entryDx=0;entryDy=0;" edge="1" parent="1" source="JgOdJI_5aJNnrcdEc_Zj-7" target="JgOdJI_5aJNnrcdEc_Zj-24">
          <mxGeometry relative="1" as="geometry" />
        </mxCell>
        <mxCell id="JgOdJI_5aJNnrcdEc_Zj-4" style="edgeStyle=orthogonalEdgeStyle;rounded=0;orthogonalLoop=1;jettySize=auto;html=1;exitX=1;exitY=0.25;exitDx=0;exitDy=0;entryX=0;entryY=0.5;entryDx=0;entryDy=0;" edge="1" parent="1" source="JgOdJI_5aJNnrcdEc_Zj-7" target="JgOdJI_5aJNnrcdEc_Zj-25">
          <mxGeometry relative="1" as="geometry" />
        </mxCell>
        <mxCell id="JgOdJI_5aJNnrcdEc_Zj-5" style="edgeStyle=orthogonalEdgeStyle;rounded=0;orthogonalLoop=1;jettySize=auto;html=1;exitX=1;exitY=0.25;exitDx=0;exitDy=0;entryX=0;entryY=0.5;entryDx=0;entryDy=0;" edge="1" parent="1" source="JgOdJI_5aJNnrcdEc_Zj-7" target="JgOdJI_5aJNnrcdEc_Zj-26">
          <mxGeometry relative="1" as="geometry" />
        </mxCell>
        <mxCell id="JgOdJI_5aJNnrcdEc_Zj-6" style="edgeStyle=orthogonalEdgeStyle;rounded=0;orthogonalLoop=1;jettySize=auto;html=1;exitX=1;exitY=0.25;exitDx=0;exitDy=0;entryX=0;entryY=0.5;entryDx=0;entryDy=0;" edge="1" parent="1" source="JgOdJI_5aJNnrcdEc_Zj-7" target="JgOdJI_5aJNnrcdEc_Zj-27">
          <mxGeometry relative="1" as="geometry" />
        </mxCell>
        <mxCell id="JgOdJI_5aJNnrcdEc_Zj-7" value="" style="rounded=0;whiteSpace=wrap;html=1;fillColor=#f5f5f5;strokeColor=#666666;fontSize=20;fontColor=#333333;" vertex="1" parent="1">
          <mxGeometry x="550" y="215" width="300" height="375" as="geometry" />
        </mxCell>
        <mxCell id="JgOdJI_5aJNnrcdEc_Zj-8" value="" style="rounded=0;whiteSpace=wrap;html=1;fontSize=20;fillColor=#f5f5f5;fontColor=#333333;strokeColor=#666666;" vertex="1" parent="1">
          <mxGeometry x="210" y="215" width="300" height="415" as="geometry" />
        </mxCell>
        <mxCell id="JgOdJI_5aJNnrcdEc_Zj-9" style="edgeStyle=orthogonalEdgeStyle;rounded=0;orthogonalLoop=1;jettySize=auto;html=1;exitX=0.5;exitY=1;exitDx=0;exitDy=0;entryX=0.5;entryY=0;entryDx=0;entryDy=0;" edge="1" parent="1" source="JgOdJI_5aJNnrcdEc_Zj-10" target="JgOdJI_5aJNnrcdEc_Zj-12">
          <mxGeometry relative="1" as="geometry" />
        </mxCell>
        <mxCell id="JgOdJI_5aJNnrcdEc_Zj-10" value="Stem Block" style="rounded=0;whiteSpace=wrap;html=1;fillColor=#d5e8d4;strokeColor=#82b366;fontSize=15;fontStyle=1" vertex="1" parent="1">
          <mxGeometry x="240" y="231" width="240" height="40" as="geometry" />
        </mxCell>
        <mxCell id="JgOdJI_5aJNnrcdEc_Zj-11" style="edgeStyle=orthogonalEdgeStyle;rounded=0;orthogonalLoop=1;jettySize=auto;html=1;exitX=0.5;exitY=1;exitDx=0;exitDy=0;entryX=0.5;entryY=0;entryDx=0;entryDy=0;" edge="1" parent="1" source="JgOdJI_5aJNnrcdEc_Zj-12" target="JgOdJI_5aJNnrcdEc_Zj-14">
          <mxGeometry relative="1" as="geometry" />
        </mxCell>
        <mxCell id="JgOdJI_5aJNnrcdEc_Zj-12" value="Inception Module 1" style="rounded=0;whiteSpace=wrap;html=1;fillColor=#d5e8d4;strokeColor=#82b366;fontSize=15;fontStyle=1" vertex="1" parent="1">
          <mxGeometry x="240" y="294" width="240" height="40" as="geometry" />
        </mxCell>
        <mxCell id="JgOdJI_5aJNnrcdEc_Zj-13" style="edgeStyle=orthogonalEdgeStyle;rounded=0;orthogonalLoop=1;jettySize=auto;html=1;exitX=0.5;exitY=1;exitDx=0;exitDy=0;entryX=0.5;entryY=0;entryDx=0;entryDy=0;" edge="1" parent="1" source="JgOdJI_5aJNnrcdEc_Zj-14" target="JgOdJI_5aJNnrcdEc_Zj-16">
          <mxGeometry relative="1" as="geometry" />
        </mxCell>
        <mxCell id="JgOdJI_5aJNnrcdEc_Zj-14" value="Entropy-Based Feature Extraction Layer" style="rounded=0;whiteSpace=wrap;html=1;fillColor=#e1d5e7;strokeColor=#9673a6;fontSize=15;fontStyle=1" vertex="1" parent="1">
          <mxGeometry x="240" y="360" width="240" height="50" as="geometry" />
        </mxCell>
        <mxCell id="JgOdJI_5aJNnrcdEc_Zj-15" style="edgeStyle=orthogonalEdgeStyle;rounded=0;orthogonalLoop=1;jettySize=auto;html=1;exitX=0.5;exitY=1;exitDx=0;exitDy=0;entryX=0.5;entryY=0;entryDx=0;entryDy=0;" edge="1" parent="1" source="JgOdJI_5aJNnrcdEc_Zj-16" target="JgOdJI_5aJNnrcdEc_Zj-18">
          <mxGeometry relative="1" as="geometry" />
        </mxCell>
        <mxCell id="JgOdJI_5aJNnrcdEc_Zj-16" value="Inception Module 2" style="rounded=0;whiteSpace=wrap;html=1;fillColor=#d5e8d4;strokeColor=#82b366;fontSize=15;fontStyle=1" vertex="1" parent="1">
          <mxGeometry x="240" y="435" width="240" height="40" as="geometry" />
        </mxCell>
        <mxCell id="JgOdJI_5aJNnrcdEc_Zj-17" style="edgeStyle=orthogonalEdgeStyle;rounded=0;orthogonalLoop=1;jettySize=auto;html=1;exitX=0.5;exitY=1;exitDx=0;exitDy=0;entryX=0.5;entryY=0;entryDx=0;entryDy=0;" edge="1" parent="1" source="JgOdJI_5aJNnrcdEc_Zj-18" target="JgOdJI_5aJNnrcdEc_Zj-19">
          <mxGeometry relative="1" as="geometry" />
        </mxCell>
        <mxCell id="JgOdJI_5aJNnrcdEc_Zj-18" value="Auxilliary Classifier" style="rounded=0;whiteSpace=wrap;html=1;fillColor=#d5e8d4;strokeColor=#82b366;fontSize=15;fontStyle=1" vertex="1" parent="1">
          <mxGeometry x="240" y="500" width="240" height="40" as="geometry" />
        </mxCell>
        <mxCell id="JgOdJI_5aJNnrcdEc_Zj-19" value="Inception Module 3" style="rounded=0;whiteSpace=wrap;html=1;fillColor=#d5e8d4;strokeColor=#82b366;fontSize=15;fontStyle=1" vertex="1" parent="1">
          <mxGeometry x="240" y="565" width="240" height="40" as="geometry" />
        </mxCell>
        <mxCell id="JgOdJI_5aJNnrcdEc_Zj-20" style="edgeStyle=orthogonalEdgeStyle;rounded=0;orthogonalLoop=1;jettySize=auto;html=1;exitX=0.5;exitY=1;exitDx=0;exitDy=0;entryX=0.5;entryY=0;entryDx=0;entryDy=0;" edge="1" parent="1" source="JgOdJI_5aJNnrcdEc_Zj-21" target="JgOdJI_5aJNnrcdEc_Zj-38">
          <mxGeometry relative="1" as="geometry" />
        </mxCell>
        <mxCell id="JgOdJI_5aJNnrcdEc_Zj-21" value="Dense Layer 1" style="rounded=0;whiteSpace=wrap;html=1;fillColor=#d5e8d4;strokeColor=#82b366;fontSize=15;fontStyle=1" vertex="1" parent="1">
          <mxGeometry x="580" y="294" width="240" height="36" as="geometry" />
        </mxCell>
        <mxCell id="JgOdJI_5aJNnrcdEc_Zj-22" value="Clean" style="rounded=0;whiteSpace=wrap;html=1;fillColor=#dae8fc;strokeColor=#6c8ebf;fontSize=16;fontStyle=1" vertex="1" parent="1">
          <mxGeometry x="900" y="215" width="240" height="40" as="geometry" />
        </mxCell>
        <mxCell id="JgOdJI_5aJNnrcdEc_Zj-23" value="Malicious URL" style="rounded=0;whiteSpace=wrap;html=1;fillColor=#dae8fc;strokeColor=#6c8ebf;fontSize=15;fontStyle=1" vertex="1" parent="1">
          <mxGeometry x="900" y="265" width="240" height="40" as="geometry" />
        </mxCell>
        <mxCell id="JgOdJI_5aJNnrcdEc_Zj-24" value="Malicious JS" style="rounded=0;whiteSpace=wrap;html=1;fillColor=#dae8fc;strokeColor=#6c8ebf;fontSize=15;fontStyle=1" vertex="1" parent="1">
          <mxGeometry x="900" y="315" width="240" height="40" as="geometry" />
        </mxCell>
        <mxCell id="JgOdJI_5aJNnrcdEc_Zj-25" value="Malicious JS in HTML" style="rounded=0;whiteSpace=wrap;html=1;fillColor=#dae8fc;strokeColor=#6c8ebf;fontSize=15;fontStyle=1" vertex="1" parent="1">
          <mxGeometry x="900" y="365" width="240" height="40" as="geometry" />
        </mxCell>
        <mxCell id="JgOdJI_5aJNnrcdEc_Zj-26" value="Malicious PS" style="rounded=0;whiteSpace=wrap;html=1;fillColor=#dae8fc;strokeColor=#6c8ebf;fontSize=15;fontStyle=1" vertex="1" parent="1">
          <mxGeometry x="900" y="415" width="240" height="40" as="geometry" />
        </mxCell>
        <mxCell id="JgOdJI_5aJNnrcdEc_Zj-27" value="Malicious Ethereum Address" style="rounded=0;whiteSpace=wrap;html=1;fillColor=#dae8fc;strokeColor=#6c8ebf;fontSize=15;fontStyle=1" vertex="1" parent="1">
          <mxGeometry x="900" y="465" width="240" height="40" as="geometry" />
        </mxCell>
        <mxCell id="JgOdJI_5aJNnrcdEc_Zj-28" value="Detection" style="text;html=1;align=center;verticalAlign=middle;whiteSpace=wrap;rounded=0;fontSize=16;" vertex="1" parent="1">
          <mxGeometry x="330" y="178" width="60" height="30" as="geometry" />
        </mxCell>
        <mxCell id="JgOdJI_5aJNnrcdEc_Zj-29" value="&lt;span style=&quot;font-size: 15px; text-wrap: wrap; background-color: rgb(251, 251, 251);&quot;&gt;Classification&lt;/span&gt;" style="edgeLabel;html=1;align=center;verticalAlign=middle;resizable=0;points=[];" vertex="1" connectable="0" parent="1">
          <mxGeometry x="429.9999999999998" y="215.00307692307715" as="geometry">
            <mxPoint x="267" y="-23" as="offset" />
          </mxGeometry>
        </mxCell>
        <mxCell id="JgOdJI_5aJNnrcdEc_Zj-30" value="&lt;font style=&quot;font-size: 15px;&quot;&gt;&lt;b&gt;PNG Image&lt;/b&gt;&lt;/font&gt;" style="rounded=0;whiteSpace=wrap;html=1;fillColor=#ffe6cc;strokeColor=#d79b00;fontSize=15;" vertex="1" parent="1">
          <mxGeometry x="40" y="235" width="140" height="40" as="geometry" />
        </mxCell>
        <mxCell id="JgOdJI_5aJNnrcdEc_Zj-31" value="Input" style="text;html=1;align=center;verticalAlign=middle;whiteSpace=wrap;rounded=0;fontSize=16;" vertex="1" parent="1">
          <mxGeometry x="80" y="178" width="60" height="30" as="geometry" />
        </mxCell>
        <mxCell id="JgOdJI_5aJNnrcdEc_Zj-32" value="Output" style="text;html=1;align=center;verticalAlign=middle;whiteSpace=wrap;rounded=0;fontSize=16;" vertex="1" parent="1">
          <mxGeometry x="990" y="175" width="60" height="30" as="geometry" />
        </mxCell>
        <mxCell id="JgOdJI_5aJNnrcdEc_Zj-33" style="edgeStyle=orthogonalEdgeStyle;rounded=0;orthogonalLoop=1;jettySize=auto;html=1;exitX=0.5;exitY=1;exitDx=0;exitDy=0;entryX=0.5;entryY=0;entryDx=0;entryDy=0;" edge="1" parent="1" source="JgOdJI_5aJNnrcdEc_Zj-34" target="JgOdJI_5aJNnrcdEc_Zj-36">
          <mxGeometry relative="1" as="geometry" />
        </mxCell>
        <mxCell id="JgOdJI_5aJNnrcdEc_Zj-34" value="Dropout" style="rounded=0;whiteSpace=wrap;html=1;fillColor=#d5e8d4;strokeColor=#82b366;fontSize=15;fontStyle=1" vertex="1" parent="1">
          <mxGeometry x="580" y="419" width="240" height="36" as="geometry" />
        </mxCell>
        <mxCell id="JgOdJI_5aJNnrcdEc_Zj-35" style="edgeStyle=orthogonalEdgeStyle;rounded=0;orthogonalLoop=1;jettySize=auto;html=1;exitX=0.5;exitY=1;exitDx=0;exitDy=0;" edge="1" parent="1" source="JgOdJI_5aJNnrcdEc_Zj-36" target="JgOdJI_5aJNnrcdEc_Zj-41">
          <mxGeometry relative="1" as="geometry" />
        </mxCell>
        <mxCell id="JgOdJI_5aJNnrcdEc_Zj-36" value="Dense Layer 2" style="rounded=0;whiteSpace=wrap;html=1;fillColor=#d5e8d4;strokeColor=#82b366;fontSize=15;fontStyle=1" vertex="1" parent="1">
          <mxGeometry x="580" y="475" width="240" height="36" as="geometry" />
        </mxCell>
        <mxCell id="JgOdJI_5aJNnrcdEc_Zj-37" style="edgeStyle=orthogonalEdgeStyle;rounded=0;orthogonalLoop=1;jettySize=auto;html=1;exitX=0.5;exitY=1;exitDx=0;exitDy=0;" edge="1" parent="1" source="JgOdJI_5aJNnrcdEc_Zj-38" target="JgOdJI_5aJNnrcdEc_Zj-34">
          <mxGeometry relative="1" as="geometry" />
        </mxCell>
        <mxCell id="JgOdJI_5aJNnrcdEc_Zj-38" value="ReLU" style="rounded=0;whiteSpace=wrap;html=1;fillColor=#d5e8d4;strokeColor=#82b366;fontSize=15;fontStyle=1" vertex="1" parent="1">
          <mxGeometry x="580" y="355" width="240" height="36" as="geometry" />
        </mxCell>
        <mxCell id="JgOdJI_5aJNnrcdEc_Zj-39" style="edgeStyle=orthogonalEdgeStyle;rounded=0;orthogonalLoop=1;jettySize=auto;html=1;exitX=0.5;exitY=1;exitDx=0;exitDy=0;entryX=0.5;entryY=0;entryDx=0;entryDy=0;" edge="1" parent="1" source="JgOdJI_5aJNnrcdEc_Zj-40" target="JgOdJI_5aJNnrcdEc_Zj-21">
          <mxGeometry relative="1" as="geometry" />
        </mxCell>
        <mxCell id="JgOdJI_5aJNnrcdEc_Zj-40" value="Global Average Pooling Layer" style="rounded=0;whiteSpace=wrap;html=1;fillColor=#d5e8d4;strokeColor=#82b366;fontSize=15;fontStyle=1" vertex="1" parent="1">
          <mxGeometry x="580" y="231" width="240" height="40" as="geometry" />
        </mxCell>
        <mxCell id="JgOdJI_5aJNnrcdEc_Zj-41" value="Softmax" style="rounded=0;whiteSpace=wrap;html=1;fillColor=#d5e8d4;strokeColor=#82b366;fontSize=15;fontStyle=1" vertex="1" parent="1">
          <mxGeometry x="580" y="532" width="240" height="36" as="geometry" />
        </mxCell>
        <mxCell id="JgOdJI_5aJNnrcdEc_Zj-42" style="edgeStyle=orthogonalEdgeStyle;rounded=0;orthogonalLoop=1;jettySize=auto;html=1;exitX=1;exitY=0.25;exitDx=0;exitDy=0;entryX=0.001;entryY=0.277;entryDx=0;entryDy=0;entryPerimeter=0;" edge="1" parent="1" source="JgOdJI_5aJNnrcdEc_Zj-8" target="JgOdJI_5aJNnrcdEc_Zj-7">
          <mxGeometry relative="1" as="geometry" />
        </mxCell>
        <mxCell id="JgOdJI_5aJNnrcdEc_Zj-43" style="edgeStyle=orthogonalEdgeStyle;rounded=0;orthogonalLoop=1;jettySize=auto;html=1;exitX=1;exitY=0.5;exitDx=0;exitDy=0;entryX=-0.011;entryY=0.096;entryDx=0;entryDy=0;entryPerimeter=0;" edge="1" parent="1" source="JgOdJI_5aJNnrcdEc_Zj-30" target="JgOdJI_5aJNnrcdEc_Zj-8">
          <mxGeometry relative="1" as="geometry" />
        </mxCell>
      </root>
    </mxGraphModel>
  </diagram>
</mxfile>
